<svg xmlns="http://www.w3.org/2000/svg" viewBox="0 0 932.86 213.12"><path d="M50.92 4.72L47.42.15l-3.5 4.57c-1 1.28-2.12 2.73-3.45 4.41-14.83 18.81-45.7 58-39.71 101.15 3.31 23.82 17.52 45.23 42.25 63.67v36.2h8.82v-36.2c24.73-18.44 38.94-39.85 42.25-63.67 6-43.19-24.88-82.34-39.72-101.15C53.04 7.45 51.9 6 50.92 4.72zm34.44 104.35c-2.73 19.68-14 37.71-33.51 53.7v-25.79l19.89-20.94-6.4-6.07-13.51 14.18V97.07l19.89-20.92-6.4-6.07-13.49 14.21v-24.2h-8.82v24.18l-13.5-14.21-6.39 6.09 19.89 20.94v27.06l-13.5-14.21-6.39 6.07 19.89 20.94v25.79c-19.52-16-30.79-34-33.52-53.7-5.48-39.44 23.87-76.6 37.87-94.45 14.08 17.85 43.38 55 37.9 94.48z" fill="#fff"/><g fill="#fff"><path d="M174 209.96v-210h11.52v110.92q11.8-21 36-21 21.88 0 32.54 16.42 5.76 9.21 5.76 29.66v74H248.3v-74q0-16.41-4.6-23.62-6.91-11.51-23-11.52-19.59 0-28.8 16.42-6.35 11.24-6.34 31.68v61.06zM390.86 112.9V92.45h11.5v117.51h-11.5v-21q-15.84 24.19-45.79 24.19a54.79 54.79 0 0 1-40.61-17q-16.71-17-16.7-44.93 0-27.35 15.84-44.35t41.47-17q29.37-.01 45.79 23.03zm-45.22-12.1a44.26 44.26 0 0 0-32.28 13.4q-13.54 13.38-13.54 36.14 0 21 12.39 36.43t33.72 15.38q21 0 33.27-15.12t12.24-36.72q0-23.9-14.12-36.72t-31.68-12.79zM443.85 209.96V92.45h11.51v18.43q11.81-21 36-21 21.88 0 32.54 16.42 5.76 9.21 5.76 29.66v74h-11.51v-74q0-16.41-4.6-23.62-6.91-11.51-23-11.52-19.59 0-28.8 16.42-6.39 11.22-6.39 31.66v61.06zM571.14 209.96V92.45h11.52v18.43q11.81-21 36-21 21.88 0 32.55 16.42 5.74 9.21 5.76 29.66v74h-11.52v-74q0-16.41-4.61-23.62-6.91-11.51-23-11.52-19.59 0-28.8 16.42-6.35 11.24-6.34 31.68v61.06zM794.05 112.9V92.45h11.52v117.51h-11.52v-21q-15.84 24.19-45.79 24.19a54.79 54.79 0 0 1-40.61-17q-16.71-17-16.7-44.93 0-27.35 15.84-44.35t41.47-17q29.37-.01 45.79 23.03zm-45.22-12.1a44.26 44.26 0 0 0-32.25 13.4q-13.54 13.38-13.54 36.14 0 21 12.39 36.43t33.69 15.38q21 0 33.27-15.12t12.24-36.72q0-23.9-14.12-36.72t-31.68-12.79zM847.04 209.96v-210h11.52v110.92q11.8-21 36-21 21.88 0 32.54 16.42 5.76 9.21 5.76 29.66v74h-11.5v-74q0-16.41-4.6-23.62-6.92-11.51-23.05-11.52-19.57 0-28.79 16.42-6.35 11.24-6.34 31.68v61.06z"/></g></svg>